<svg width="40" height="41" viewBox="0 0 40 41" fill="none" xmlns="http://www.w3.org/2000/svg">
<circle cx="20" cy="20.1562" r="20" fill="#2A2A2A"/>
<g clip-path="url(#clip0_197_64)">
<path d="M29.9413 14.4263C30.4173 16.2826 30.4173 20.1576 30.4173 20.1576C30.4173 20.1576 30.4173 24.0326 29.9413 25.8888C29.6767 26.9148 28.9027 27.7221 27.9225 27.9951C26.1423 28.4909 20.0007 28.4909 20.0007 28.4909C20.0007 28.4909 13.8621 28.4909 12.0788 27.9951C11.0944 27.718 10.3215 26.9117 10.06 25.8888C9.58398 24.0326 9.58398 20.1576 9.58398 20.1576C9.58398 20.1576 9.58398 16.2826 10.06 14.4263C10.3246 13.4003 11.0986 12.593 12.0788 12.3201C13.8621 11.8242 20.0007 11.8242 20.0007 11.8242C20.0007 11.8242 26.1423 11.8242 27.9225 12.3201C28.9069 12.5971 29.6798 13.4034 29.9413 14.4263ZM17.9173 23.8034L24.1673 20.1576L17.9173 16.5117V23.8034Z" fill="#FFF2D6"/>
</g>
<defs>
<clipPath id="clip0_197_64">
<rect width="25" height="25" fill="white" transform="translate(7.5 7.65625)"/>
</clipPath>
</defs>
</svg>
