<svg width="40" height="41" viewBox="0 0 40 41" fill="none" xmlns="http://www.w3.org/2000/svg">
<circle cx="20" cy="20.1562" r="20" fill="#2A2A2A"/>
<g clip-path="url(#clip0_197_52)">
<path d="M20.0007 9.73828C22.8309 9.73828 23.184 9.7487 24.2944 9.80078C25.4038 9.85286 26.159 10.0268 26.8236 10.2852C27.5111 10.5497 28.0902 10.9081 28.6694 11.4862C29.1991 12.0069 29.6089 12.6368 29.8704 13.332C30.1277 13.9956 30.3027 14.7518 30.3548 15.8612C30.4038 16.9716 30.4173 17.3247 30.4173 20.1549C30.4173 22.9852 30.4069 23.3383 30.3548 24.4487C30.3027 25.5581 30.1277 26.3133 29.8704 26.9779C29.6097 27.6735 29.1997 28.3035 28.6694 28.8237C28.1485 29.3532 27.5187 29.763 26.8236 30.0247C26.16 30.282 25.4038 30.457 24.2944 30.5091C23.184 30.5581 22.8309 30.5716 20.0007 30.5716C17.1704 30.5716 16.8173 30.5612 15.7069 30.5091C14.5975 30.457 13.8423 30.282 13.1777 30.0247C12.4822 29.7638 11.8522 29.3539 11.3319 28.8237C10.8021 28.3031 10.3922 27.6731 10.1309 26.9779C9.87253 26.3143 9.69857 25.5581 9.64648 24.4487C9.59753 23.3383 9.58398 22.9852 9.58398 20.1549C9.58398 17.3247 9.5944 16.9716 9.64648 15.8612C9.69857 14.7508 9.87253 13.9966 10.1309 13.332C10.3915 12.6364 10.8015 12.0063 11.3319 11.4862C11.8524 10.9562 12.4823 10.5463 13.1777 10.2852C13.8423 10.0268 14.5965 9.85286 15.7069 9.80078C16.8173 9.75182 17.1704 9.73828 20.0007 9.73828ZM20.0007 14.9466C18.6193 14.9466 17.2946 15.4953 16.3178 16.4721C15.3411 17.4489 14.7923 18.7736 14.7923 20.1549C14.7923 21.5363 15.3411 22.861 16.3178 23.8378C17.2946 24.8145 18.6193 25.3633 20.0007 25.3633C21.382 25.3633 22.7067 24.8145 23.6835 23.8378C24.6603 22.861 25.209 21.5363 25.209 20.1549C25.209 18.7736 24.6603 17.4489 23.6835 16.4721C22.7067 15.4953 21.382 14.9466 20.0007 14.9466ZM26.7715 14.6862C26.7715 14.3409 26.6343 14.0097 26.3901 13.7655C26.1459 13.5213 25.8147 13.3841 25.4694 13.3841C25.1241 13.3841 24.7929 13.5213 24.5487 13.7655C24.3045 14.0097 24.1673 14.3409 24.1673 14.6862C24.1673 15.0315 24.3045 15.3627 24.5487 15.6069C24.7929 15.8511 25.1241 15.9883 25.4694 15.9883C25.8147 15.9883 26.1459 15.8511 26.3901 15.6069C26.6343 15.3627 26.7715 15.0315 26.7715 14.6862ZM20.0007 17.0299C20.8295 17.0299 21.6243 17.3592 22.2104 17.9452C22.7964 18.5313 23.1257 19.3261 23.1257 20.1549C23.1257 20.9838 22.7964 21.7786 22.2104 22.3647C21.6243 22.9507 20.8295 23.2799 20.0007 23.2799C19.1719 23.2799 18.377 22.9507 17.7909 22.3647C17.2049 21.7786 16.8757 20.9838 16.8757 20.1549C16.8757 19.3261 17.2049 18.5313 17.7909 17.9452C18.377 17.3592 19.1719 17.0299 20.0007 17.0299Z" fill="#FFF2D6"/>
</g>
<defs>
<clipPath id="clip0_197_52">
<rect width="25" height="25" fill="white" transform="translate(7.5 7.65625)"/>
</clipPath>
</defs>
</svg>
