<svg width="40" height="41" viewBox="0 0 40 41" fill="none" xmlns="http://www.w3.org/2000/svg">
<circle cx="20" cy="20.1562" r="20" fill="#2A2A2A"/>
<g clip-path="url(#clip0_197_46)">
<path d="M14.7292 12.8637C14.7289 13.4162 14.5091 13.946 14.1182 14.3365C13.7273 14.727 13.1973 14.9462 12.6448 14.946C12.0923 14.9457 11.5625 14.7259 11.172 14.335C10.7815 13.9441 10.5622 13.4141 10.5625 12.8616C10.5628 12.3091 10.7825 11.7793 11.1734 11.3888C11.5643 10.9982 12.0943 10.779 12.6469 10.7793C13.1994 10.7796 13.7292 10.9993 14.1197 11.3902C14.5102 11.7811 14.7294 12.3111 14.7292 12.8637ZM14.7917 16.4887H10.625V29.5303H14.7917V16.4887ZM21.375 16.4887H17.2292V29.5303H21.3333V22.6866C21.3333 18.8741 26.3021 18.5199 26.3021 22.6866V29.5303H30.4167V21.2699C30.4167 14.8428 23.0625 15.0824 21.3333 18.2387L21.375 16.4887Z" fill="#FFF2D6"/>
</g>
<defs>
<clipPath id="clip0_197_46">
<rect width="25" height="25" fill="white" transform="translate(7.5 7.65625)"/>
</clipPath>
</defs>
</svg>
