<svg width="40" height="41" viewBox="0 0 40 41" fill="none" xmlns="http://www.w3.org/2000/svg">
<circle cx="20" cy="20.1562" r="20" fill="#2A2A2A"/>
<g clip-path="url(#clip0_184_70)">
<path d="M30.5858 13.5475C29.7906 13.8992 28.9472 14.1303 28.0837 14.2329C28.9939 13.6886 29.6751 12.8319 30.0004 11.8225C29.1462 12.3308 28.2098 12.6871 27.2337 12.8798C26.5781 12.1783 25.7091 11.7131 24.7618 11.5564C23.8145 11.3998 22.842 11.5605 21.9955 12.0136C21.1489 12.4667 20.4758 13.1867 20.0807 14.0618C19.6856 14.937 19.5908 15.9181 19.8108 16.8527C18.0786 16.7659 16.3841 16.3157 14.8371 15.5315C13.2902 14.7473 11.9255 13.6465 10.8316 12.3006C10.4444 12.9657 10.241 13.7217 10.2421 14.4912C10.2421 16.0016 11.0108 17.336 12.1796 18.1173C11.4879 18.0955 10.8115 17.9087 10.2066 17.5725V17.6266C10.2068 18.6326 10.5549 19.6075 11.1919 20.3861C11.8289 21.1647 12.7155 21.699 13.7014 21.8985C13.0594 22.0725 12.3861 22.0982 11.7327 21.9735C12.0107 22.8394 12.5525 23.5966 13.2823 24.1393C14.012 24.6819 14.8932 24.9827 15.8025 24.9996C14.8988 25.7093 13.8641 26.2339 12.7576 26.5435C11.651 26.8531 10.4943 26.9415 9.35352 26.8037C11.3449 28.0844 13.663 28.7643 16.0306 28.7621C24.0441 28.7621 28.4264 22.1235 28.4264 16.3662C28.4264 16.1787 28.4212 15.9891 28.4129 15.8037C29.2659 15.1872 30.0021 14.4235 30.5869 13.5485L30.5858 13.5475Z" fill="#FFF2D6"/>
</g>
<defs>
<clipPath id="clip0_184_70">
<rect width="25" height="25" fill="white" transform="translate(7.5 7.65625)"/>
</clipPath>
</defs>
</svg>
